<svg id="logosandtypes_com" data-name="logosandtypes com" xmlns="http://www.w3.org/2000/svg" viewBox="0 0 150 150"><defs><style>.cls-1{fill:none;}.cls-2{fill:#189eff;}</style></defs><g id="Layer_3" data-name="Layer 3"><g id="Layer_2" data-name="Layer 2"><path id="Layer_3-2" data-name="Layer 3" class="cls-1" d="M0,0H150V150H0Z"/></g></g><path class="cls-2" d="M114.64,124.66c-14.43-10.12-38.19-13.84-52.62-26C52.13,90.88,47.31,81,47.31,68.47,48.27,39.15,74.48,29.1,104,29c5.27-.6,11.17,1.62,15.4.35-9.59-11.63-27.15-17-42.4-17.24C21.92,10.67-7.59,82,32.26,120,52.53,141.53,94.12,145.77,114.64,124.66Z"/><path class="cls-2" d="M139.91,69.39c-12.38-11.37-24.28-15.91-37.11-16-10.71.09-20,3.22-20.45,13.67.86,17.91,37.37,21.78,52.28,31.83C139.71,96.37,141,75.43,139.91,69.39Z"/></svg>